<svg xmlns="http://www.w3.org/2000/svg" width="460" height="260" viewBox="0 0 460 260">
  <defs>
    <marker id="arrow" markerWidth="10" markerHeight="7" refX="10" refY="3.5" orient="auto">
      <polygon points="0 0, 10 3.5, 0 7" fill="#000" />
    </marker>
  </defs>
  <!-- Nodes -->
  <rect x="20" y="20" width="100" height="40" fill="#f0f0f0" stroke="#000" stroke-dasharray="4 2" />
  <text x="70" y="45" font-family="Arial" font-size="12" text-anchor="middle">Tutor (optional)</text>

  <rect x="20" y="80" width="100" height="60" fill="#f0f0f0" stroke="#000" />
  <text x="70" y="115" font-family="Arial" font-size="12" text-anchor="middle">Action</text>

  <rect x="180" y="80" width="100" height="60" fill="#f0f0f0" stroke="#000" />
  <text x="230" y="115" font-family="Arial" font-size="12" text-anchor="middle">Analysis</text>

  <rect x="180" y="160" width="100" height="60" fill="#f0f0f0" stroke="#000" />
  <text x="230" y="195" font-family="Arial" font-size="12" text-anchor="middle">Memory</text>

  <rect x="340" y="80" width="100" height="60" fill="#f0f0f0" stroke="#000" />
  <text x="390" y="115" font-family="Arial" font-size="12" text-anchor="middle">Support</text>

  <!-- Connections -->
  <line x1="70" y1="60" x2="230" y2="80" stroke="#000" stroke-dasharray="4 2" marker-end="url(#arrow)" />
  <line x1="120" y1="110" x2="180" y2="110" stroke="#000" marker-start="url(#arrow)" marker-end="url(#arrow)" />
  <line x1="230" y1="140" x2="230" y2="160" stroke="#000" marker-start="url(#arrow)" marker-end="url(#arrow)" />
  <line x1="280" y1="110" x2="340" y2="110" stroke="#000" marker-start="url(#arrow)" marker-end="url(#arrow)" />
  <line x1="340" y1="140" x2="280" y2="180" stroke="#000" marker-end="url(#arrow)" />
  <line x1="340" y1="80" x2="120" y2="80" stroke="#000" marker-end="url(#arrow)" />
</svg>
